#N canvas 225 43 1156 697 10;
#X floatatom 229 127 0 0 0 0 - - -;
#X floatatom 191 127 0 0 0 0 - - -;
#X floatatom 267 126 0 0 0 0 - - -;
#X obj 191 100 ctlin;
#X floatatom 683 105 0 0 0 0 - - -;
#X floatatom 716 105 0 0 0 0 - - -;
#X obj 683 132 ctlout;
#X msg 762 103 1;
#X msg 802 105 0;
#X msg 718 58 14;
#X text 698 36 Midi Output to TouchOSC;
#X text 173 53 Midi Input from TouchOSC;
#X text 186 221 Send Data to Matlab over TCP/IP;
#X obj 129 474 netsend;
#X msg 138 452 send foo \$1;
#X floatatom 138 425 0 0 0 0 - - -;
#X msg 140 347 disconnect;
#X floatatom 129 501 0 0 0 0 - - -;
#X text 180 291 TCP;
#X text 124 522 Outlet is nonzero if connection is open \, zero otherwise.
;
#X msg 552 461 send foo \$1;
#X floatatom 552 434 0 0 0 0 - - -;
#X msg 547 366 disconnect;
#X obj 535 486 netsend 1;
#X floatatom 535 513 0 0 0 0 - - -;
#X text 626 486 creation argument: 0 or none for TCP \, nonzero for
UDP;
#X text 610 303 UDP;
#X text 592 436 Send messages to "foo" on remote machine;
#X obj 474 270 bng 15 250 50 0 empty empty empty 17 7 0 10 -262144
-1 -1;
#X msg 459 146 1;
#X obj 467 201 metro 1000;
#X msg 516 147 0;
#X obj 463 345 tgl 15 0 empty empty empty 17 7 0 10 -262144 -1 -1 1
1;
#X obj 389 355 tgl 15 0 empty empty empty 17 7 0 10 -262144 -1 -1 1
1;
#X msg 129 312 connect localhost 21566;
#X floatatom 558 609 0 0 0 0 - - -;
#X obj 456 609 print udp;
#X obj 456 579 netreceive 21566 1;
#X msg 535 327 connect localhost 21555;
#X connect 3 0 1 0;
#X connect 3 1 0 0;
#X connect 3 2 2 0;
#X connect 4 0 6 0;
#X connect 5 0 6 1;
#X connect 7 0 6 2;
#X connect 8 0 6 2;
#X connect 9 0 6 1;
#X connect 13 0 17 0;
#X connect 14 0 13 0;
#X connect 15 0 14 0;
#X connect 16 0 13 0;
#X connect 20 0 23 0;
#X connect 21 0 20 0;
#X connect 22 0 23 0;
#X connect 23 0 24 0;
#X connect 28 0 33 0;
#X connect 28 0 32 0;
#X connect 29 0 30 0;
#X connect 30 0 28 0;
#X connect 31 0 30 0;
#X connect 32 0 21 0;
#X connect 34 0 13 0;
#X connect 37 0 36 0;
#X connect 38 0 23 0;
